<?xml version="1.0" encoding="UTF-8"?>
<!DOCTYPE svg PUBLIC "-//W3C//DTD SVG 1.1//EN" "http://www.w3.org/Graphics/SVG/1.1/DTD/svg11.dtd">
<svg xmlns="http://www.w3.org/2000/svg" version="1.1" width="845px" height="845px" style="shape-rendering:geometricPrecision; text-rendering:geometricPrecision; image-rendering:optimizeQuality; fill-rule:evenodd; clip-rule:evenodd" xmlns:xlink="http://www.w3.org/1999/xlink">
<g><path style="opacity:0.245" fill="#fefffe" d="M 332.5,179.5 C 326.538,180.685 320.538,181.685 314.5,182.5C 321.593,167.98 328.426,153.313 335,138.5C 340.137,127.146 339.47,116.146 333,105.5C 316.476,91.1269 306.143,73.1269 302,51.5C 300.336,40.1885 298.836,28.8552 297.5,17.5C 297.903,8.56875 302.236,5.40209 310.5,8C 311.701,8.90252 312.535,10.0692 313,11.5C 311.476,39.7446 318.81,65.4113 335,88.5C 353.163,103.178 357.829,121.512 349,143.5C 343.214,155.402 337.714,167.402 332.5,179.5 Z"/></g>
<g><path style="opacity:0.246" fill="#fefffe" d="M 430.5,177.5 C 425.562,176.608 420.562,176.274 415.5,176.5C 420.935,157.439 418.435,139.439 408,122.5C 399.547,111.375 391.881,99.708 385,87.5C 382.996,70.1955 385.329,53.5289 392,37.5C 396.17,32.3758 401.17,31.0424 407,33.5C 410.514,38.823 409.514,43.1564 404,46.5C 400.039,58.1894 398.372,70.1894 399,82.5C 406.253,95.3445 414.253,107.678 423,119.5C 432.372,137.936 434.872,157.269 430.5,177.5 Z"/></g>
<g><path style="opacity:0.246" fill="#fefffe" d="M 513.5,187.5 C 507.117,186.271 500.784,184.937 494.5,183.5C 496.426,181.707 498.759,180.707 501.5,180.5C 501.911,176.537 501.078,172.87 499,169.5C 488.718,158.879 480.384,146.879 474,133.5C 473.333,123.5 473.333,113.5 474,103.5C 475.705,93.3483 478.038,83.3483 481,73.5C 482.468,65.5583 483.468,57.5583 484,49.5C 488.838,43.9641 493.171,44.2974 497,50.5C 497.626,68.4458 494.626,85.7791 488,102.5C 485.104,117.697 487.771,131.697 496,144.5C 502,151.833 508,159.167 514,166.5C 517.467,173.704 517.3,180.704 513.5,187.5 Z"/></g>
<g><path style="opacity:0.999" fill="#7a7978" d="M 415.5,176.5 C 420.562,176.274 425.562,176.608 430.5,177.5C 448.875,177.913 467.209,179.079 485.5,181C 488.206,182.908 491.206,183.741 494.5,183.5C 500.784,184.937 507.117,186.271 513.5,187.5C 528.244,189.19 542.911,191.19 557.5,193.5C 556.641,195.106 556.474,196.773 557,198.5C 554.302,202.025 551.469,205.358 548.5,208.5C 545.84,206.503 542.84,205.003 539.5,204C 519.161,202.524 499.161,199.19 479.5,194C 454.168,193.444 428.834,192.944 403.5,192.5C 370.105,192.842 336.772,194.342 303.5,197C 286.708,199.359 270.041,202.359 253.5,206C 252.429,206.852 251.429,207.685 250.5,208.5C 249.167,208.5 247.833,208.5 246.5,208.5C 246.5,207.833 246.167,207.5 245.5,207.5C 244.086,205.946 242.419,204.612 240.5,203.5C 239.691,201.929 239.357,200.262 239.5,198.5C 240.058,197.21 241.058,196.377 242.5,196C 245.911,195.474 249.245,194.641 252.5,193.5C 254.274,193.887 255.941,194.553 257.5,195.5C 276.501,191.034 295.501,186.701 314.5,182.5C 320.538,181.685 326.538,180.685 332.5,179.5C 343.853,178.551 355.186,178.551 366.5,179.5C 370.067,178.239 373.734,177.405 377.5,177C 390.162,176.5 402.829,176.333 415.5,176.5 Z"/></g>
<g><path style="opacity:1" fill="#641800" d="M 548.5,208.5 C 544.402,210.048 540.402,211.881 536.5,214C 526.87,215.663 517.203,216.997 507.5,218C 463.691,220.506 419.857,222.339 376,223.5C 340.215,220.727 304.381,218.56 268.5,217C 262.888,213.361 256.888,210.527 250.5,208.5C 251.429,207.685 252.429,206.852 253.5,206C 270.041,202.359 286.708,199.359 303.5,197C 336.772,194.342 370.105,192.842 403.5,192.5C 428.834,192.944 454.168,193.444 479.5,194C 499.161,199.19 519.161,202.524 539.5,204C 542.84,205.003 545.84,206.503 548.5,208.5 Z"/></g>
<g><path style="opacity:0.996" fill="#8c8d8c" d="M 557.5,193.5 C 559.527,193.338 561.527,193.505 563.5,194C 564.056,194.383 564.389,194.883 564.5,195.5C 565.014,197.366 565.68,199.2 566.5,201C 562.742,226.127 558.075,251.127 552.5,276C 552.836,277.03 553.503,277.53 554.5,277.5C 553.521,279.145 552.188,280.479 550.5,281.5C 549.727,283.813 549.06,286.146 548.5,288.5C 549.602,289.176 550.602,289.842 551.5,290.5C 549.887,290.944 548.72,291.944 548,293.5C 546.6,301.136 545.433,308.802 544.5,316.5C 544.643,319.113 545.31,321.447 546.5,323.5C 545.5,323.5 544.5,323.5 543.5,323.5C 543.427,330.602 543.427,337.769 543.5,345C 541.899,352.961 541.565,360.794 542.5,368.5C 541.223,369.694 540.556,371.36 540.5,373.5C 540.783,377.196 541.283,380.863 542,384.5C 557.833,372.667 573.667,360.833 589.5,349C 595.088,343.933 594.755,339.267 588.5,335C 577.323,328.911 565.99,323.078 554.5,317.5C 553.436,312.753 554.436,308.42 557.5,304.5C 571.1,310.299 584.1,317.132 596.5,325C 609.101,334.939 609.767,345.605 598.5,357C 584.235,369.797 568.902,381.13 552.5,391C 549.948,393.853 547.115,396.353 544,398.5C 543.51,399.793 543.343,401.127 543.5,402.5C 542.398,406.747 542.232,411.08 543,415.5C 543.417,416.756 544.25,417.423 545.5,417.5C 546.043,417.56 546.376,417.893 546.5,418.5C 544.72,426.838 544.553,435.171 546,443.5C 550.047,445.469 552.047,444.136 552,439.5C 552.69,438.262 553.19,438.262 553.5,439.5C 552.207,442.679 551.54,446.012 551.5,449.5C 544.749,449.583 542.082,452.917 543.5,459.5C 543.106,466.496 542.773,473.496 542.5,480.5C 535.679,483.312 530.345,487.979 526.5,494.5C 522.022,497.81 517.689,501.31 513.5,505C 492.887,509.256 472.22,513.256 451.5,517C 428.5,517.667 405.5,517.667 382.5,517C 367.114,514.984 352.114,511.317 337.5,506C 329.799,502.294 323.299,497.127 318,490.5C 312.726,475.012 308.06,459.345 304,443.5C 303.302,442.309 302.469,441.309 301.5,440.5C 302.043,440.44 302.376,440.107 302.5,439.5C 280.163,373.484 259.996,306.817 242,239.5C 237.455,233.444 234.955,226.777 234.5,219.5C 234.818,213.105 235.652,206.772 237,200.5C 237.417,199.244 238.25,198.577 239.5,198.5C 239.357,200.262 239.691,201.929 240.5,203.5C 242.419,204.612 244.086,205.946 245.5,207.5C 246.167,207.5 246.5,207.833 246.5,208.5C 247.833,208.5 249.167,208.5 250.5,208.5C 256.888,210.527 262.888,213.361 268.5,217C 304.381,218.56 340.215,220.727 376,223.5C 419.857,222.339 463.691,220.506 507.5,218C 517.203,216.997 526.87,215.663 536.5,214C 540.402,211.881 544.402,210.048 548.5,208.5C 551.469,205.358 554.302,202.025 557,198.5C 556.474,196.773 556.641,195.106 557.5,193.5 Z M 546.5,323.5 C 548.883,324.369 550.883,325.869 552.5,328C 562.137,330.545 571.47,333.879 580.5,338C 581.591,340.064 581.758,342.231 581,344.5C 575.126,350.043 568.959,355.21 562.5,360C 557.035,362.232 552.035,365.232 547.5,369C 545.735,369.64 544.068,369.473 542.5,368.5C 541.565,360.794 541.899,352.961 543.5,345C 543.427,337.769 543.427,330.602 543.5,323.5C 544.5,323.5 545.5,323.5 546.5,323.5 Z"/></g>
<g><path style="opacity:0.701" fill="#7a7c7a" d="M 564.5,195.5 C 568.808,197.774 570.808,201.44 570.5,206.5C 568.602,230.653 564.269,254.32 557.5,277.5C 556.5,277.5 555.5,277.5 554.5,277.5C 553.503,277.53 552.836,277.03 552.5,276C 558.075,251.127 562.742,226.127 566.5,201C 565.68,199.2 565.014,197.366 564.5,195.5 Z"/></g>
<g><path style="opacity:0.703" fill="#7b7b7b" d="M 234.5,219.5 C 234.955,226.777 237.455,233.444 242,239.5C 259.996,306.817 280.163,373.484 302.5,439.5C 302.376,440.107 302.043,440.44 301.5,440.5C 298.572,440.565 295.905,441.232 293.5,442.5C 293.167,442.5 292.833,442.5 292.5,442.5C 292.388,438.035 291.055,434.035 288.5,430.5C 270.122,379.783 256.622,327.783 248,274.5C 243,260.167 238,245.833 233,231.5C 232.202,227.219 232.702,223.219 234.5,219.5 Z"/></g>
<g><path style="opacity:1" fill="#245499" d="M 285.5,240.5 C 288.297,245.735 292.797,248.068 299,247.5C 310.216,246.828 321.049,244.828 331.5,241.5C 339.015,243.143 346.681,243.976 354.5,244C 369.167,244.667 383.833,244.667 398.5,244C 427.82,242.827 457.153,241.827 486.5,241C 504.144,240.229 521.644,238.396 539,235.5C 539.5,235.833 540,236.167 540.5,236.5C 537.833,248.167 535.167,259.834 532.5,271.5C 528.04,273.459 525.207,276.793 524,281.5C 522.334,297.161 520.667,312.828 519,328.5C 517.719,379.148 517.052,429.814 517,480.5C 506.782,488.357 495.282,493.524 482.5,496C 463.551,498.548 444.551,500.548 425.5,502C 405.8,502.91 386.133,502.576 366.5,501C 358.132,497.325 349.799,493.659 341.5,490C 331.654,479.502 325.82,467.002 324,452.5C 301.7,397.267 285.7,340.267 276,281.5C 273.596,269.883 270.263,258.549 266,247.5C 265.699,244.493 265.865,241.493 266.5,238.5C 272.843,239.085 279.176,239.751 285.5,240.5 Z"/></g>
<g><path style="opacity:0.997" fill="#254b87" d="M 285.5,240.5 C 300.855,240.267 316.188,240.601 331.5,241.5C 321.049,244.828 310.216,246.828 299,247.5C 292.797,248.068 288.297,245.735 285.5,240.5 Z"/></g>
<g><path style="opacity:0.976" fill="#24569a" d="M 554.5,277.5 C 555.5,277.5 556.5,277.5 557.5,277.5C 593.869,278.072 620.369,294.405 637,326.5C 638.419,335.125 638.752,343.792 638,352.5C 636.667,355.167 635.333,357.833 634,360.5C 627.833,366.667 621.667,372.833 615.5,379C 597.466,391.351 578.8,402.685 559.5,413C 554.627,414.237 549.96,415.737 545.5,417.5C 544.25,417.423 543.417,416.756 543,415.5C 542.232,411.08 542.398,406.747 543.5,402.5C 552.897,400.089 561.897,396.589 570.5,392C 583.833,383.333 597.167,374.667 610.5,366C 627.868,351.517 629.701,335.35 616,317.5C 607.024,307.524 596.191,300.357 583.5,296C 572.933,293.524 562.266,291.691 551.5,290.5C 550.602,289.842 549.602,289.176 548.5,288.5C 549.06,286.146 549.727,283.813 550.5,281.5C 552.188,280.479 553.521,279.145 554.5,277.5 Z"/></g>
<g><path style="opacity:0.987" fill="#7b7b7c" d="M 551.5,290.5 C 562.266,291.691 572.933,293.524 583.5,296C 596.191,300.357 607.024,307.524 616,317.5C 629.701,335.35 627.868,351.517 610.5,366C 597.167,374.667 583.833,383.333 570.5,392C 561.897,396.589 552.897,400.089 543.5,402.5C 543.343,401.127 543.51,399.793 544,398.5C 547.115,396.353 549.948,393.853 552.5,391C 568.902,381.13 584.235,369.797 598.5,357C 609.767,345.605 609.101,334.939 596.5,325C 584.1,317.132 571.1,310.299 557.5,304.5C 554.436,308.42 553.436,312.753 554.5,317.5C 565.99,323.078 577.323,328.911 588.5,335C 594.755,339.267 595.088,343.933 589.5,349C 573.667,360.833 557.833,372.667 542,384.5C 541.283,380.863 540.783,377.196 540.5,373.5C 540.556,371.36 541.223,369.694 542.5,368.5C 544.068,369.473 545.735,369.64 547.5,369C 552.035,365.232 557.035,362.232 562.5,360C 568.959,355.21 575.126,350.043 581,344.5C 581.758,342.231 581.591,340.064 580.5,338C 571.47,333.879 562.137,330.545 552.5,328C 550.883,325.869 548.883,324.369 546.5,323.5C 545.31,321.447 544.643,319.113 544.5,316.5C 545.433,308.802 546.6,301.136 548,293.5C 548.72,291.944 549.887,290.944 551.5,290.5 Z"/></g>
<g><path style="opacity:1" fill="#333536" d="M 368.5,331.5 C 372.605,331.234 376.605,331.734 380.5,333C 382.536,335.5 382.87,338.167 381.5,341C 378.333,341.252 375.333,341.418 372.5,341.5C 370.87,344.276 370.203,347.276 370.5,350.5C 373.545,350.342 376.379,351.009 379,352.5C 380.666,358.331 378.499,360.998 372.5,360.5C 372.666,368.84 372.5,377.173 372,385.5C 369.667,386.833 367.333,386.833 365,385.5C 363.816,377.208 363.316,368.875 363.5,360.5C 359.211,361.517 356.878,359.85 356.5,355.5C 357.071,353.259 358.404,351.592 360.5,350.5C 360.461,342.931 363.127,336.598 368.5,331.5 Z"/></g>
<g><path style="opacity:1" fill="#343537" d="M 397.5,333.5 C 403.816,332.576 408.983,334.576 413,339.5C 414.591,346.077 412.091,348.244 405.5,346C 401.536,342.483 400.202,343.317 401.5,348.5C 404.616,349.184 407.616,350.184 410.5,351.5C 412.204,357.472 409.871,360.138 403.5,359.5C 404.304,369.447 403.137,379.113 400,388.5C 397.667,389.833 395.333,389.833 393,388.5C 392.833,387.167 392.667,385.833 392.5,384.5C 393.365,376.524 393.699,368.524 393.5,360.5C 386.44,361.275 383.94,358.275 386,351.5C 387.444,349.845 389.278,349.178 391.5,349.5C 390.01,342.653 392.01,337.32 397.5,333.5 Z"/></g>
<g><path style="opacity:0.023" fill="#8c8d8c" d="M 550.5,335.5 C 551.713,336.497 551.546,337.497 550,338.5C 549.53,337.423 549.697,336.423 550.5,335.5 Z"/></g>
<g><path style="opacity:0.01" fill="#8c8d8c" d="M 557.5,337.5 C 559.337,337.639 559.67,338.306 558.5,339.5C 557.702,339.043 557.369,338.376 557.5,337.5 Z"/></g>
<g><path style="opacity:1" fill="#333637" d="M 499.5,338.5 C 507.147,337.319 512.313,340.319 515,347.5C 517.582,357.01 516.082,365.843 510.5,374C 504.906,375.913 502.739,374.08 504,368.5C 510.953,359.229 509.787,351.229 500.5,344.5C 499.534,342.604 499.201,340.604 499.5,338.5 Z"/></g>
<g><path style="opacity:1" fill="#33373b" d="M 487.5,344.5 C 492.906,343.735 494.906,346.069 493.5,351.5C 491.5,351.5 489.5,351.5 487.5,351.5C 487.5,349.167 487.5,346.833 487.5,344.5 Z"/></g>
<g><path style="opacity:1" fill="#333536" d="M 456.5,346.5 C 463.508,346.334 470.508,346.5 477.5,347C 479.059,348.996 479.726,351.329 479.5,354C 479.167,355.833 478.833,357.667 478.5,359.5C 473.798,361.84 469.131,364.173 464.5,366.5C 464.709,367.086 465.043,367.586 465.5,368C 470.489,368.499 475.489,368.666 480.5,368.5C 480.5,370.5 480.5,372.5 480.5,374.5C 460.922,379.428 451.755,371.761 453,351.5C 454.176,349.804 455.343,348.138 456.5,346.5 Z"/></g>
<g><path style="opacity:1" fill="#333536" d="M 308.5,349.5 C 312.514,349.334 316.514,349.501 320.5,350C 325.411,351.506 326.744,354.673 324.5,359.5C 323.5,359.833 322.5,360.167 321.5,360.5C 316.173,356.941 312.84,358.274 311.5,364.5C 311.692,366.577 312.192,368.577 313,370.5C 315.567,371.27 318.067,372.27 320.5,373.5C 321.769,375.695 321.769,377.861 320.5,380C 305.836,381.668 299.669,375.168 302,360.5C 303.674,356.476 305.841,352.809 308.5,349.5 Z"/></g>
<g><path style="opacity:1" fill="#333536" d="M 336.5,352.5 C 353.076,351.644 357.576,358.644 350,373.5C 341.442,380.85 334.109,379.85 328,370.5C 327.333,368.5 327.333,366.5 328,364.5C 330.106,359.944 332.939,355.944 336.5,352.5 Z"/></g>
<g><path style="opacity:1" fill="#245598" d="M 461.5,353.5 C 464.85,353.335 468.183,353.502 471.5,354C 468.072,355.94 464.406,357.106 460.5,357.5C 460.433,356.041 460.766,354.708 461.5,353.5 Z"/></g>
<g><path style="opacity:1" fill="#343536" d="M 424.5,355.5 C 430.176,355.334 435.843,355.501 441.5,356C 445.941,359.312 446.608,363.312 443.5,368C 438.161,369.501 432.827,371.001 427.5,372.5C 427.833,372.833 428.167,373.167 428.5,373.5C 430.775,374.107 433.109,374.441 435.5,374.5C 439.838,373.824 444.171,373.158 448.5,372.5C 449.125,375.97 448.125,378.804 445.5,381C 438.06,381.928 430.726,381.594 423.5,380C 422.667,379.167 421.833,378.333 421,377.5C 420.333,371.833 420.333,366.167 421,360.5C 421.997,358.677 423.164,357.01 424.5,355.5 Z"/></g>
<g><path style="opacity:1" fill="#27518c" d="M 339.5,361.5 C 340.833,361.5 342.167,361.5 343.5,361.5C 344.575,365.938 342.908,367.938 338.5,367.5C 338.833,365.5 339.167,363.5 339.5,361.5 Z"/></g>
<g><path style="opacity:1" fill="#33373b" d="M 489.5,361.5 C 494.906,360.735 496.906,363.069 495.5,368.5C 493.5,368.5 491.5,368.5 489.5,368.5C 489.5,366.167 489.5,363.833 489.5,361.5 Z"/></g>
<g><path style="opacity:0.106" fill="#828282" d="M 553.5,426.5 C 552.475,426.103 552.308,425.437 553,424.5C 553.464,425.094 553.631,425.761 553.5,426.5 Z"/></g>
<g><path style="opacity:0.962" fill="#6e6e6e" d="M 288.5,430.5 C 291.055,434.035 292.388,438.035 292.5,442.5C 290.079,443.891 287.412,444.725 284.5,445C 281.443,447.723 278.11,450.056 274.5,452C 270.033,457.468 265.2,462.635 260,467.5C 256.195,478.692 251.529,489.692 246,500.5C 243.167,502.667 240.333,504.833 237.5,507C 234.15,507.93 231.317,507.097 229,504.5C 224.336,493.776 218.836,484.109 212.5,475.5C 213.661,473.776 213.495,472.11 212,470.5C 207.126,465.854 202.293,461.354 197.5,457C 194.698,455.455 191.698,454.622 188.5,454.5C 175.181,455.259 161.848,455.759 148.5,456C 137.914,460.529 127.247,464.862 116.5,469C 113.772,471.392 110.772,473.392 107.5,475C 105.877,477.08 104.377,479.246 103,481.5C 100.532,482.104 98.5325,483.438 97,485.5C 93.2163,492.968 88.2163,499.635 82,505.5C 81.3333,507.5 80.6667,509.5 80,511.5C 77.3124,514.254 74.979,517.254 73,520.5C 72.6896,524.641 70.5229,526.975 66.5,527.5C 66.6621,529.527 66.4955,531.527 66,533.5C 63.6023,533.958 61.9356,535.292 61,537.5C 61.1812,544.281 59.0145,550.114 54.5,555C 25.551,567.521 17.7177,588.021 31,616.5C 33.2727,619.804 36.4394,621.304 40.5,621C 42.5,622.333 44.5,623.667 46.5,625C 49.5305,623.83 52.1972,624.497 54.5,627C 58.1667,627.333 61.8333,627.667 65.5,628C 66.3567,628.689 67.0233,629.522 67.5,630.5C 66.3775,632.482 66.3775,634.482 67.5,636.5C 65.1495,644.969 63.6495,653.635 63,662.5C 60.0104,670.998 59.6771,679.665 62,688.5C 65.5921,688.926 67.0921,690.926 66.5,694.5C 67.552,694.351 68.552,694.517 69.5,695C 72.76,697.92 75.76,701.087 78.5,704.5C 84.9247,707.082 91.258,709.915 97.5,713C 100.036,713.339 102.536,713.839 105,714.5C 105.873,714.265 106.707,713.931 107.5,713.5C 112.784,716.28 118.118,716.613 123.5,714.5C 130.384,714.879 137.384,715.212 144.5,715.5C 145.811,718.811 148.145,721.145 151.5,722.5C 154.823,728.898 155.156,735.398 152.5,742C 154.469,748.457 154.969,754.957 154,761.5C 157.053,764.887 159.72,768.553 162,772.5C 163.399,773.227 164.899,773.727 166.5,774C 172.192,782.924 179.526,790.091 188.5,795.5C 192.728,799.45 197.728,802.116 203.5,803.5C 207.971,802.875 212.471,803.208 217,804.5C 221.496,803.417 225.996,802.417 230.5,801.5C 237.319,799.207 244.486,797.873 252,797.5C 259.975,799.689 267.142,798.189 273.5,793C 276.289,792.759 278.956,792.092 281.5,791C 284.398,787.388 288.065,785.055 292.5,784C 295.781,779.597 299.614,775.763 304,772.5C 308.466,764.704 314.3,758.204 321.5,753C 322.222,751.249 323.222,749.749 324.5,748.5C 326.833,745.833 329.167,745.833 331.5,748.5C 336.825,762.992 346.492,773.492 360.5,780C 364.132,782.63 367.465,785.63 370.5,789C 376.896,790.697 382.562,793.697 387.5,798C 392.299,799.457 396.966,801.123 401.5,803C 404.38,803.684 407.213,803.517 410,802.5C 413.51,806.032 417.343,806.365 421.5,803.5C 425.467,806.046 429.467,806.046 433.5,803.5C 437.773,804.346 441.94,805.346 446,806.5C 452.621,804.727 459.288,804.393 466,805.5C 470.172,805.041 474.338,804.541 478.5,804C 481.112,803.361 483.446,802.194 485.5,800.5C 486.833,801.167 488.167,801.833 489.5,802.5C 493.677,802.059 497.51,800.726 501,798.5C 507.265,800.482 513.432,800.482 519.5,798.5C 524.082,800.033 528.415,799.7 532.5,797.5C 538.114,798.621 543.78,798.788 549.5,798C 558.149,795.784 566.483,792.784 574.5,789C 576.734,785.751 579.734,783.751 583.5,783C 588.261,770.222 591.261,757.055 592.5,743.5C 595.251,741.422 598.251,739.755 601.5,738.5C 603.3,738.902 604.967,739.569 606.5,740.5C 606.859,742.371 607.859,743.871 609.5,745C 615.51,748.003 621.843,750.003 628.5,751C 630.596,752.766 632.929,754.099 635.5,755C 644.427,757.225 653.427,759.059 662.5,760.5C 664.374,760.61 665.874,759.944 667,758.5C 668.722,760.444 670.889,761.444 673.5,761.5C 678.278,759.773 683.111,759.439 688,760.5C 690.806,759.759 693.473,758.759 696,757.5C 698.478,758.332 700.978,758.499 703.5,758C 712.626,753.435 721.959,749.435 731.5,746C 741.12,740.408 750.786,734.742 760.5,729C 766.776,724.43 770.776,718.43 772.5,711C 770.551,695.75 765.551,681.584 757.5,668.5C 758.618,664.422 760.618,660.922 763.5,658C 775.331,657.357 786.997,656.357 798.5,655C 802.288,653.022 806.121,651.189 810,649.5C 809.356,636.467 809.356,623.133 810,609.5C 808.706,603.003 808.039,596.336 808,589.5C 806.271,589.026 805.105,588.026 804.5,586.5C 805.886,584.062 805.553,581.729 803.5,579.5C 804.889,575.933 804.389,572.599 802,569.5C 799.931,566.685 797.431,564.352 794.5,562.5C 794.709,561.914 795.043,561.414 795.5,561C 793.091,559.799 791.091,558.133 789.5,556C 777.891,549.115 765.891,542.782 753.5,537C 746.006,536.083 739.006,533.75 732.5,530C 729.707,526.895 727.04,523.728 724.5,520.5C 724.34,514.719 725.007,508.885 726.5,503C 726.305,500.106 724.972,497.939 722.5,496.5C 723.471,495.038 723.138,493.705 721.5,492.5C 722.343,487.842 720.676,484.176 716.5,481.5C 716.709,480.914 717.043,480.414 717.5,480C 713.131,477.336 709.464,474.003 706.5,470C 705.552,469.517 704.552,469.351 703.5,469.5C 703.5,468.5 703.5,467.5 703.5,466.5C 702.127,466.657 700.793,466.49 699.5,466C 695.991,463.642 692.324,461.642 688.5,460C 681.792,459.813 675.792,457.647 670.5,453.5C 667.849,454.789 665.516,454.289 663.5,452C 656.237,451.944 649.737,449.777 644,445.5C 642.612,446.554 641.112,446.72 639.5,446C 635.942,444.638 632.442,443.138 629,441.5C 628,441.833 627,442.167 626,442.5C 617.841,441.818 609.674,441.151 601.5,440.5C 594.453,443.071 587.12,444.238 579.5,444C 570.849,447.814 561.849,450.814 552.5,453C 549.015,454.675 546.015,456.842 543.5,459.5C 542.082,452.917 544.749,449.583 551.5,449.5C 551.54,446.012 552.207,442.679 553.5,439.5C 560.493,436.884 567.326,434.55 574,432.5C 576.279,433.33 578.112,432.497 579.5,430C 583.985,429.855 588.318,429.022 592.5,427.5C 593.833,428.167 595.167,428.833 596.5,429.5C 597.833,428.5 599.167,427.5 600.5,426.5C 605.833,430.5 611.167,430.5 616.5,426.5C 618.311,427.739 620.311,428.406 622.5,428.5C 626.545,427.52 630.378,427.52 634,428.5C 642.536,431.227 651.036,434.727 659.5,439C 665.243,438.744 670.577,439.911 675.5,442.5C 680.937,441.948 685.771,443.615 690,447.5C 690.414,447.043 690.914,446.709 691.5,446.5C 699.059,451.447 707.059,455.614 715.5,459C 716.191,460.067 716.691,461.234 717,462.5C 734.205,475.335 741.372,492.335 738.5,513.5C 738.76,515.187 739.427,516.687 740.5,518C 749.008,521.594 757.675,524.594 766.5,527C 772.952,531.222 779.618,534.889 786.5,538C 788,539.5 789.5,541 791,542.5C 791.414,542.043 791.914,541.709 792.5,541.5C 800.082,547.038 806.915,553.372 813,560.5C 814.667,565.167 816.333,569.833 818,574.5C 818.758,576.769 818.591,578.936 817.5,581C 819.106,584.967 820.106,589.134 820.5,593.5C 820.392,594.442 820.059,595.275 819.5,596C 822.717,603.219 823.383,610.719 821.5,618.5C 821.542,621.959 822.209,625.292 823.5,628.5C 822.274,632.155 822.274,635.822 823.5,639.5C 822.508,643.802 821.675,648.135 821,652.5C 820.654,654.848 819.487,656.681 817.5,658C 813.4,662.385 808.4,665.218 802.5,666.5C 801.833,666.167 801.167,665.833 800.5,665.5C 798.075,667.145 795.408,668.311 792.5,669C 785.822,670.378 779.156,670.878 772.5,670.5C 776.649,677.999 780.149,685.665 783,693.5C 783.549,702.168 783.216,710.834 782,719.5C 780.073,722.948 778.739,726.615 778,730.5C 775.847,734.654 772.514,737.32 768,738.5C 767.517,739.448 767.351,740.448 767.5,741.5C 765.801,741.34 764.134,741.506 762.5,742C 754.799,748.184 746.466,753.351 737.5,757.5C 736.558,757.392 735.725,757.059 735,756.5C 723.579,763.939 711.246,769.272 698,772.5C 697,772.167 696,771.833 695,771.5C 693.532,772.628 691.865,773.294 690,773.5C 685.341,772.248 680.674,772.248 676,773.5C 672.756,773.151 669.59,772.485 666.5,771.5C 665.452,772.383 664.285,773.05 663,773.5C 659,772.167 655,770.833 651,769.5C 649.856,769.911 648.689,770.244 647.5,770.5C 635.812,766.078 623.812,762.912 611.5,761C 611.002,759.842 610.169,759.009 609,758.5C 606.268,757.114 603.435,756.114 600.5,755.5C 599.771,759.686 598.438,763.686 596.5,767.5C 598.408,772.374 597.241,776.374 593,779.5C 591.402,783.461 589.902,787.461 588.5,791.5C 583.964,793.941 579.964,797.108 576.5,801C 566.416,804.778 556.082,808.111 545.5,811C 541.623,811.729 537.789,811.562 534,810.5C 532.604,811.394 531.104,812.061 529.5,812.5C 519.82,812.376 510.154,812.043 500.5,811.5C 494.783,814.639 488.783,815.639 482.5,814.5C 481.065,816.401 479.398,816.734 477.5,815.5C 472.883,817.529 468.049,818.529 463,818.5C 456.498,817.214 449.998,817.214 443.5,818.5C 440.13,818.626 436.963,817.96 434,816.5C 433.261,817.574 432.261,818.241 431,818.5C 427.175,817.206 423.341,817.206 419.5,818.5C 414.69,816.998 409.857,816.665 405,817.5C 398.682,817.068 393.182,814.901 388.5,811C 385.385,810.97 382.885,809.803 381,807.5C 380.586,807.957 380.086,808.291 379.5,808.5C 371.602,803.087 363.268,798.42 354.5,794.5C 352.322,790.477 348.988,788.31 344.5,788C 340.364,783.371 335.697,779.204 330.5,775.5C 330.709,774.914 331.043,774.414 331.5,774C 329.181,770.153 325.847,768.32 321.5,768.5C 321.456,772.554 319.456,775.221 315.5,776.5C 314.754,777.736 314.421,779.07 314.5,780.5C 310.686,780.651 309.019,782.651 309.5,786.5C 308.448,786.351 307.448,786.517 306.5,787C 305.5,788.667 304.5,790.333 303.5,792C 298.751,793.032 295.084,795.532 292.5,799.5C 286.378,801.597 280.711,804.43 275.5,808C 271.152,807.918 267.152,808.918 263.5,811C 257.274,811.406 251.107,812.239 245,813.5C 243.293,813.352 241.626,813.018 240,812.5C 229.539,813.726 219.205,815.392 209,817.5C 199.85,817.089 191.35,814.589 183.5,810C 178.442,805.943 173.108,802.276 167.5,799C 166.167,798 166.167,797 167.5,796C 164.272,792.377 160.605,789.21 156.5,786.5C 157.326,785.549 157.492,784.549 157,783.5C 149,778.806 144,771.806 142,762.5C 141.167,761.667 140.333,760.833 139.5,760C 142.113,757.205 142.113,754.371 139.5,751.5C 143.309,746.064 143.309,740.731 139.5,735.5C 140.04,734.252 140.707,733.085 141.5,732C 139.481,730.134 137.148,728.967 134.5,728.5C 125.056,729.456 115.39,729.456 105.5,728.5C 99.9167,727.441 94.5833,725.774 89.5,723.5C 88.7065,723.931 87.8732,724.265 87,724.5C 73.6868,718.154 62.3535,709.154 53,697.5C 51.4379,695.043 50.4379,692.376 50,689.5C 48.5134,688.845 47.3467,687.845 46.5,686.5C 47.5031,683.828 48.5031,681.162 49.5,678.5C 48.7477,671.808 48.4144,665.475 48.5,659.5C 49.3052,657.085 50.3052,654.751 51.5,652.5C 50.5279,648.224 51.5279,644.391 54.5,641C 53.1095,639.98 51.6095,639.147 50,638.5C 45.5636,639.386 41.7303,638.052 38.5,634.5C 34.6378,635.267 31.3045,634.1 28.5,631C 27.2068,630.51 25.8734,630.343 24.5,630.5C 24.5,629.5 24.5,628.5 24.5,627.5C 23.0695,627.579 21.7362,627.246 20.5,626.5C 19.2888,625.726 19.2888,624.893 20.5,624C 18.6667,622.833 16.8333,621.667 15,620.5C 14.3828,619.551 14.5494,618.718 15.5,618C 14.09,617.632 13.09,616.799 12.5,615.5C 15.0048,611.108 14.3381,607.108 10.5,603.5C 12.4685,601.598 13.4685,599.265 13.5,596.5C 12.5602,591.847 12.5602,587.347 13.5,583C 17.8039,570.081 25.1372,559.081 35.5,550C 40.505,550.012 44.3384,547.845 47,543.5C 54.7785,528.061 63.7785,513.394 74,499.5C 76.4121,494.341 79.0788,489.341 82,484.5C 92.1964,474.196 102.696,464.363 113.5,455C 121.892,452.759 130.058,449.925 138,446.5C 139.412,447.923 140.579,447.756 141.5,446C 147.893,445.913 154.06,444.746 160,442.5C 161,442.833 162,443.167 163,443.5C 164.845,442.244 166.845,441.244 169,440.5C 170.667,441.167 172.333,441.833 174,442.5C 177.743,440.918 181.243,441.251 184.5,443.5C 193.389,440.577 201.723,441.744 209.5,447C 212.182,451.27 215.682,454.77 220,457.5C 223.188,466.039 228.021,473.539 234.5,480C 231.556,483.353 231.89,486.187 235.5,488.5C 239.098,486.539 239.765,484.039 237.5,481C 245.714,468.755 254.547,456.922 264,445.5C 271.308,439.011 279.475,434.011 288.5,430.5 Z"/></g>
<g><path style="opacity:0.008" fill="#555555" d="M 553.5,426.5 C 554.525,426.897 554.692,427.563 554,428.5C 553.536,427.906 553.369,427.239 553.5,426.5 Z"/></g>
<g><path style="opacity:0.999" fill="#afb0af" d="M 301.5,440.5 C 302.469,441.309 303.302,442.309 304,443.5C 308.06,459.345 312.726,475.012 318,490.5C 323.299,497.127 329.799,502.294 337.5,506C 352.114,511.317 367.114,514.984 382.5,517C 405.5,517.667 428.5,517.667 451.5,517C 472.22,513.256 492.887,509.256 513.5,505C 517.689,501.31 522.022,497.81 526.5,494.5C 530.345,487.979 535.679,483.312 542.5,480.5C 544.369,482.635 545.036,485.302 544.5,488.5C 537.603,495.235 530.269,501.401 522.5,507C 510.989,513.837 498.656,518.504 485.5,521C 472.384,521.791 459.384,523.457 446.5,526C 418.492,527.872 390.492,527.872 362.5,526C 350.333,521.055 338.333,515.722 326.5,510C 319.181,505.017 313.681,498.517 310,490.5C 308.221,484.277 305.888,478.277 303,472.5C 301.292,464.665 299.126,456.998 296.5,449.5C 296.662,447.473 296.495,445.473 296,443.5C 295.329,442.748 294.496,442.414 293.5,442.5C 295.905,441.232 298.572,440.565 301.5,440.5 Z"/></g>
<g><path style="opacity:0.999" fill="#e1e1e1" d="M 724.5,520.5 C 719.834,519.864 715.168,519.031 710.5,518C 698.078,506.789 684.078,498.122 668.5,492C 658.351,487.428 648.684,482.095 639.5,476C 622.515,469.571 605.182,468.238 587.5,472C 573.773,474.354 560.773,478.687 548.5,485C 547.295,486.376 545.962,487.542 544.5,488.5C 545.036,485.302 544.369,482.635 542.5,480.5C 542.773,473.496 543.106,466.496 543.5,459.5C 546.015,456.842 549.015,454.675 552.5,453C 561.849,450.814 570.849,447.814 579.5,444C 587.12,444.238 594.453,443.071 601.5,440.5C 609.674,441.151 617.841,441.818 626,442.5C 627,442.167 628,441.833 629,441.5C 632.442,443.138 635.942,444.638 639.5,446C 641.112,446.72 642.612,446.554 644,445.5C 649.737,449.777 656.237,451.944 663.5,452C 665.516,454.289 667.849,454.789 670.5,453.5C 675.792,457.647 681.792,459.813 688.5,460C 692.324,461.642 695.991,463.642 699.5,466C 700.793,466.49 702.127,466.657 703.5,466.5C 703.5,467.5 703.5,468.5 703.5,469.5C 704.552,469.351 705.552,469.517 706.5,470C 709.464,474.003 713.131,477.336 717.5,480C 717.043,480.414 716.709,480.914 716.5,481.5C 720.676,484.176 722.343,487.842 721.5,492.5C 723.138,493.705 723.471,495.038 722.5,496.5C 724.972,497.939 726.305,500.106 726.5,503C 725.007,508.885 724.34,514.719 724.5,520.5 Z"/></g>
<g><path style="opacity:0.998" fill="#e1e1e1" d="M 292.5,442.5 C 292.833,442.5 293.167,442.5 293.5,442.5C 294.496,442.414 295.329,442.748 296,443.5C 296.495,445.473 296.662,447.473 296.5,449.5C 291.257,453.314 285.591,456.48 279.5,459C 278.333,460.167 277.167,461.333 276,462.5C 272.878,472.073 269.211,481.406 265,490.5C 262.268,494.241 259.934,498.241 258,502.5C 251.336,509.508 243.836,515.341 235.5,520C 227.335,520.861 219.168,521.694 211,522.5C 205.534,522.267 201.2,519.934 198,515.5C 195.397,509.357 193.397,503.023 192,496.5C 189.088,490.342 185.921,484.342 182.5,478.5C 176.863,477.337 171.196,477.17 165.5,478C 163.553,482.28 160.553,485.613 156.5,488C 145.85,488.932 135.184,489.599 124.5,490C 118.049,491.228 112.049,493.561 106.5,497C 94.2405,510.431 87.4072,526.264 86,544.5C 82.625,550.567 78.2916,555.9 73,560.5C 69.2045,568.639 63.5378,575.306 56,580.5C 52.5011,584.672 49.8344,589.338 48,594.5C 47.2025,596.259 47.3691,597.926 48.5,599.5C 54.6923,601.798 61.0257,603.632 67.5,605C 76.7543,611.442 78.5877,619.609 73,629.5C 70.5111,631.469 68.6778,633.802 67.5,636.5C 66.3775,634.482 66.3775,632.482 67.5,630.5C 67.0233,629.522 66.3567,628.689 65.5,628C 61.8333,627.667 58.1667,627.333 54.5,627C 52.1972,624.497 49.5305,623.83 46.5,625C 44.5,623.667 42.5,622.333 40.5,621C 36.4394,621.304 33.2727,619.804 31,616.5C 17.7177,588.021 25.551,567.521 54.5,555C 59.0145,550.114 61.1812,544.281 61,537.5C 61.9356,535.292 63.6023,533.958 66,533.5C 66.4955,531.527 66.6621,529.527 66.5,527.5C 70.5229,526.975 72.6896,524.641 73,520.5C 74.979,517.254 77.3124,514.254 80,511.5C 80.6667,509.5 81.3333,507.5 82,505.5C 88.2163,499.635 93.2163,492.968 97,485.5C 98.5325,483.438 100.532,482.104 103,481.5C 104.377,479.246 105.877,477.08 107.5,475C 110.772,473.392 113.772,471.392 116.5,469C 127.247,464.862 137.914,460.529 148.5,456C 161.848,455.759 175.181,455.259 188.5,454.5C 191.698,454.622 194.698,455.455 197.5,457C 202.293,461.354 207.126,465.854 212,470.5C 213.495,472.11 213.661,473.776 212.5,475.5C 218.836,484.109 224.336,493.776 229,504.5C 231.317,507.097 234.15,507.93 237.5,507C 240.333,504.833 243.167,502.667 246,500.5C 251.529,489.692 256.195,478.692 260,467.5C 265.2,462.635 270.033,457.468 274.5,452C 278.11,450.056 281.443,447.723 284.5,445C 287.412,444.725 290.079,443.891 292.5,442.5 Z"/></g>
<g><path style="opacity:1" fill="#fdfefd" d="M 296.5,449.5 C 299.126,456.998 301.292,464.665 303,472.5C 305.888,478.277 308.221,484.277 310,490.5C 313.681,498.517 319.181,505.017 326.5,510C 338.333,515.722 350.333,521.055 362.5,526C 390.492,527.872 418.492,527.872 446.5,526C 459.384,523.457 472.384,521.791 485.5,521C 498.656,518.504 510.989,513.837 522.5,507C 530.269,501.401 537.603,495.235 544.5,488.5C 545.962,487.542 547.295,486.376 548.5,485C 560.773,478.687 573.773,474.354 587.5,472C 605.182,468.238 622.515,469.571 639.5,476C 648.684,482.095 658.351,487.428 668.5,492C 684.078,498.122 698.078,506.789 710.5,518C 715.168,519.031 719.834,519.864 724.5,520.5C 727.04,523.728 729.707,526.895 732.5,530C 739.006,533.75 746.006,536.083 753.5,537C 765.891,542.782 777.891,549.115 789.5,556C 791.091,558.133 793.091,559.799 795.5,561C 795.043,561.414 794.709,561.914 794.5,562.5C 797.431,564.352 799.931,566.685 802,569.5C 804.389,572.599 804.889,575.933 803.5,579.5C 805.553,581.729 805.886,584.062 804.5,586.5C 803.685,587.429 802.852,588.429 802,589.5C 801.667,594.167 801.333,598.833 801,603.5C 796.877,612.228 791.377,620.061 784.5,627C 777.933,628.65 771.267,629.65 764.5,630C 760.388,631.779 757.222,634.612 755,638.5C 754.162,648.654 752.662,658.654 750.5,668.5C 750.667,670.833 750.833,673.167 751,675.5C 753.884,679.434 756.384,683.601 758.5,688C 756.374,691.747 753.874,695.247 751,698.5C 750.178,700.788 749.511,703.122 749,705.5C 744.167,711 739.333,716.5 734.5,722C 728.309,724.73 721.976,727.063 715.5,729C 691.477,734.934 667.143,738.768 642.5,740.5C 631.705,740.156 621.038,738.823 610.5,736.5C 607.488,736.179 606.155,737.512 606.5,740.5C 604.967,739.569 603.3,738.902 601.5,738.5C 598.251,739.755 595.251,741.422 592.5,743.5C 592.441,741.278 591.275,740.278 589,740.5C 573.914,740.066 562.08,745.899 553.5,758C 547.743,762.03 541.41,764.697 534.5,766C 501.924,769.929 469.258,772.762 436.5,774.5C 415.463,773.827 394.796,770.661 374.5,765C 370.167,762.5 365.833,760 361.5,757.5C 354.631,743.289 344.631,740.289 331.5,748.5C 329.167,745.833 326.833,745.833 324.5,748.5C 323.078,748.25 322.078,747.417 321.5,746C 319.167,745.333 316.833,745.333 314.5,746C 302.255,749.736 289.922,753.07 277.5,756C 275.5,757.333 273.5,758.667 271.5,760C 252.502,761.134 233.502,761.801 214.5,762C 208.703,760.967 203.036,759.467 197.5,757.5C 194.077,753.572 191.243,749.239 189,744.5C 185.731,741.117 181.897,738.617 177.5,737C 171.416,723.222 161.083,715.222 146.5,713C 145.934,713.995 145.267,714.828 144.5,715.5C 137.384,715.212 130.384,714.879 123.5,714.5C 118.118,716.613 112.784,716.28 107.5,713.5C 106.707,713.931 105.873,714.265 105,714.5C 102.536,713.839 100.036,713.339 97.5,713C 91.258,709.915 84.9247,707.082 78.5,704.5C 75.76,701.087 72.76,697.92 69.5,695C 68.552,694.517 67.552,694.351 66.5,694.5C 67.0921,690.926 65.5921,688.926 62,688.5C 59.6771,679.665 60.0104,670.998 63,662.5C 63.6495,653.635 65.1495,644.969 67.5,636.5C 68.6778,633.802 70.5111,631.469 73,629.5C 78.5877,619.609 76.7543,611.442 67.5,605C 61.0257,603.632 54.6923,601.798 48.5,599.5C 47.3691,597.926 47.2025,596.259 48,594.5C 49.8344,589.338 52.5011,584.672 56,580.5C 63.5378,575.306 69.2045,568.639 73,560.5C 78.2916,555.9 82.625,550.567 86,544.5C 87.4072,526.264 94.2405,510.431 106.5,497C 112.049,493.561 118.049,491.228 124.5,490C 135.184,489.599 145.85,488.932 156.5,488C 160.553,485.613 163.553,482.28 165.5,478C 171.196,477.17 176.863,477.337 182.5,478.5C 185.921,484.342 189.088,490.342 192,496.5C 193.397,503.023 195.397,509.357 198,515.5C 201.2,519.934 205.534,522.267 211,522.5C 219.168,521.694 227.335,520.861 235.5,520C 243.836,515.341 251.336,509.508 258,502.5C 259.934,498.241 262.268,494.241 265,490.5C 269.211,481.406 272.878,472.073 276,462.5C 277.167,461.333 278.333,460.167 279.5,459C 285.591,456.48 291.257,453.314 296.5,449.5 Z"/></g>
<g><path style="opacity:0.999" fill="#e1e1e1" d="M 804.5,586.5 C 805.105,588.026 806.271,589.026 808,589.5C 808.039,596.336 808.706,603.003 810,609.5C 809.356,623.133 809.356,636.467 810,649.5C 806.121,651.189 802.288,653.022 798.5,655C 786.997,656.357 775.331,657.357 763.5,658C 760.618,660.922 758.618,664.422 757.5,668.5C 765.551,681.584 770.551,695.75 772.5,711C 770.776,718.43 766.776,724.43 760.5,729C 750.786,734.742 741.12,740.408 731.5,746C 721.959,749.435 712.626,753.435 703.5,758C 700.978,758.499 698.478,758.332 696,757.5C 693.473,758.759 690.806,759.759 688,760.5C 683.111,759.439 678.278,759.773 673.5,761.5C 670.889,761.444 668.722,760.444 667,758.5C 665.874,759.944 664.374,760.61 662.5,760.5C 653.427,759.059 644.427,757.225 635.5,755C 632.929,754.099 630.596,752.766 628.5,751C 621.843,750.003 615.51,748.003 609.5,745C 607.859,743.871 606.859,742.371 606.5,740.5C 606.155,737.512 607.488,736.179 610.5,736.5C 621.038,738.823 631.705,740.156 642.5,740.5C 667.143,738.768 691.477,734.934 715.5,729C 721.976,727.063 728.309,724.73 734.5,722C 739.333,716.5 744.167,711 749,705.5C 749.511,703.122 750.178,700.788 751,698.5C 753.874,695.247 756.374,691.747 758.5,688C 756.384,683.601 753.884,679.434 751,675.5C 750.833,673.167 750.667,670.833 750.5,668.5C 752.662,658.654 754.162,648.654 755,638.5C 757.222,634.612 760.388,631.779 764.5,630C 771.267,629.65 777.933,628.65 784.5,627C 791.377,620.061 796.877,612.228 801,603.5C 801.333,598.833 801.667,594.167 802,589.5C 802.852,588.429 803.685,587.429 804.5,586.5 Z"/></g>
<g><path style="opacity:0.998" fill="#e1e1e1" d="M 324.5,748.5 C 323.222,749.749 322.222,751.249 321.5,753C 314.3,758.204 308.466,764.704 304,772.5C 299.614,775.763 295.781,779.597 292.5,784C 288.065,785.055 284.398,787.388 281.5,791C 278.956,792.092 276.289,792.759 273.5,793C 267.142,798.189 259.975,799.689 252,797.5C 244.486,797.873 237.319,799.207 230.5,801.5C 222.01,800.67 213.343,800.17 204.5,800C 199.287,797.983 193.954,796.483 188.5,795.5C 179.526,790.091 172.192,782.924 166.5,774C 164.899,773.727 163.399,773.227 162,772.5C 159.72,768.553 157.053,764.887 154,761.5C 154.969,754.957 154.469,748.457 152.5,742C 155.156,735.398 154.823,728.898 151.5,722.5C 148.145,721.145 145.811,718.811 144.5,715.5C 145.267,714.828 145.934,713.995 146.5,713C 161.083,715.222 171.416,723.222 177.5,737C 181.897,738.617 185.731,741.117 189,744.5C 191.243,749.239 194.077,753.572 197.5,757.5C 203.036,759.467 208.703,760.967 214.5,762C 233.502,761.801 252.502,761.134 271.5,760C 273.5,758.667 275.5,757.333 277.5,756C 289.922,753.07 302.255,749.736 314.5,746C 316.833,745.333 319.167,745.333 321.5,746C 322.078,747.417 323.078,748.25 324.5,748.5 Z"/></g>
<g><path style="opacity:0.998" fill="#e1e1e1" d="M 592.5,743.5 C 591.261,757.055 588.261,770.222 583.5,783C 579.734,783.751 576.734,785.751 574.5,789C 566.483,792.784 558.149,795.784 549.5,798C 543.78,798.788 538.114,798.621 532.5,797.5C 528.415,799.7 524.082,800.033 519.5,798.5C 513.432,800.482 507.265,800.482 501,798.5C 497.51,800.726 493.677,802.059 489.5,802.5C 488.167,801.833 486.833,801.167 485.5,800.5C 483.446,802.194 481.112,803.361 478.5,804C 474.338,804.541 470.172,805.041 466,805.5C 459.288,804.393 452.621,804.727 446,806.5C 441.94,805.346 437.773,804.346 433.5,803.5C 429.467,806.046 425.467,806.046 421.5,803.5C 417.343,806.365 413.51,806.032 410,802.5C 407.213,803.517 404.38,803.684 401.5,803C 396.966,801.123 392.299,799.457 387.5,798C 382.562,793.697 376.896,790.697 370.5,789C 367.465,785.63 364.132,782.63 360.5,780C 346.492,773.492 336.825,762.992 331.5,748.5C 344.631,740.289 354.631,743.289 361.5,757.5C 365.833,760 370.167,762.5 374.5,765C 394.796,770.661 415.463,773.827 436.5,774.5C 469.258,772.762 501.924,769.929 534.5,766C 541.41,764.697 547.743,762.03 553.5,758C 562.08,745.899 573.914,740.066 589,740.5C 591.275,740.278 592.441,741.278 592.5,743.5 Z"/></g>
<g><path style="opacity:0.967" fill="#f8f9f8" d="M 188.5,795.5 C 193.954,796.483 199.287,797.983 204.5,800C 213.343,800.17 222.01,800.67 230.5,801.5C 225.996,802.417 221.496,803.417 217,804.5C 212.471,803.208 207.971,802.875 203.5,803.5C 197.728,802.116 192.728,799.45 188.5,795.5 Z"/></g>
</svg>
